# xmcd
#
# Track frame offsets: 
#        150
#        37912
#        81407
#        112452
#        150824
#        188994
#        204748
#        229309
#        253509
#
# Disc length: 4104 seconds
#
# Revision: 0
# Processed by: cddbd v1.5.2PL0 Copyright (c) Steve Scherf et al.
# Submitted via: ExactAudioCopy v0.99pb4
#
DISCID=76100609
DTITLE=Danny Bryant's Redeyeband - Night Life
DYEAR=2012
DGENRE=Blues
TTITLE0=Tell Me
TTITLE1=Just As I Am
TTITLE2=Heartbreaker
TTITLE3=Love Of Angels
TTITLE4=Master Of Disaster
TTITLE5=One Look
TTITLE6=My Baby's A Superstar
TTITLE7=Knockin' On Heaven's Door
TTITLE8=Always With Me
EXTD=Live in Holland\nSeptember 17th 2011\nPartycentrum "de Kentering"
EXTD=, Rosmalen
EXTT0=
EXTT1=
EXTT2=
EXTT3=
EXTT4=
EXTT5=
EXTT6=
EXTT7=
EXTT8=
PLAYORDER=
